<?xml version="1.0" encoding="UTF-8"?>
<svg version="1.1" xmlns="http://www.w3.org/2000/svg" width="412" height="91">
<path d="M0 0 C0.72058594 -0.01611328 1.44117187 -0.03222656 2.18359375 -0.04882812 C8.63416158 -0.05466046 13.23914124 1.45357168 18.3125 5.625 C23.31389383 11.76956957 23.15471686 18.69118655 22.5 26.3125 C21.61067639 30.21023862 20.04191048 32.77058952 17.1875 35.625 C11.21402788 39.37578482 4.98914663 39.84019195 -1.875 40.4375 C-2.80183594 40.52386719 -3.72867188 40.61023438 -4.68359375 40.69921875 C-6.95522701 40.90998885 -9.22724727 41.11423181 -11.5 41.3125 C-11.58121924 42.91582791 -11.63929134 44.52034026 -11.6875 46.125 C-11.72230469 47.01832031 -11.75710937 47.91164062 -11.79296875 48.83203125 C-11.70113641 51.34479746 -11.70113641 51.34479746 -10.18920898 53.11621094 C-7.45029145 55.05589817 -4.85007849 54.6314943 -1.5625 54.5625 C-0.33660156 54.54703125 0.88929687 54.5315625 2.15234375 54.515625 C4.79407245 54.35533341 6.99113825 54.09219638 9.5 53.3125 C9.3453125 51.4253125 9.3453125 51.4253125 9.1875 49.5 C9.19140625 47.296875 9.19140625 47.296875 9.5 45.3125 C11.625 43.25 11.625 43.25 14.5 42.3125 C17.6875 42.4375 17.6875 42.4375 20.5 43.3125 C23.00552308 47.07078462 22.87195709 48.84901494 22.5 53.3125 C20.94167464 57.9095598 19.40397025 61.35814414 15.5 64.3125 C9.21240263 67.15001595 3.86224884 67.86023189 -3 67.875 C-3.89847656 67.91173828 -4.79695313 67.94847656 -5.72265625 67.98632812 C-12.61098557 68.03144819 -16.58888942 66.11975254 -21.5 61.3125 C-26.96351358 54.26280506 -25.71802565 44.74163513 -25.74023438 36.25512695 C-25.74992764 34.01670994 -25.78099337 31.77921735 -25.8125 29.54101562 C-25.94310717 12.25183182 -25.94310717 12.25183182 -20.87207031 6.44995117 C-14.96599971 0.71544463 -7.90146641 -0.03533751 0 0 Z M-12.5 16.3125 C-12.57258946 18.49889453 -12.58373783 20.68750389 -12.5625 22.875 C-12.55347656 24.07253906 -12.54445313 25.27007812 -12.53515625 26.50390625 C-12.52355469 27.43074219 -12.51195313 28.35757813 -12.5 29.3125 C-9.39444745 29.03452422 -6.29097058 28.73776358 -3.1875 28.4375 C-2.30642578 28.35886719 -1.42535156 28.28023437 -0.51757812 28.19921875 C0.32998047 28.11542969 1.17753906 28.03164063 2.05078125 27.9453125 C2.83106689 27.87199707 3.61135254 27.79868164 4.4152832 27.72314453 C6.79494233 27.39279789 6.79494233 27.39279789 9.5 25.3125 C9.86416047 22.87556689 9.86416047 22.87556689 9.6875 20.1875 C9.66042969 19.27742188 9.63335937 18.36734375 9.60546875 17.4296875 C9.57066406 16.73101562 9.53585938 16.03234375 9.5 15.3125 C2.53162087 10.91141844 -6.33692573 10.14942573 -12.5 16.3125 Z " fill="#FAFAFA" transform="translate(82.5,23.6875)"/>
<path d="M0 0 C1.16015625 -0.04350586 1.16015625 -0.04350586 2.34375 -0.08789062 C8.11422887 -0.1508237 12.43758279 1.0700712 17.25 4.3125 C22.06051012 9.49304936 22.48072846 13.17188471 22.5625 20.0625 C22.59150391 20.86171875 22.62050781 21.6609375 22.65039062 22.484375 C22.70844556 27.91474476 21.96864617 31.08071867 18.25 35.3125 C14.66858229 37.8265343 11.84110105 38.77553143 7.51171875 39.26171875 C6.44501953 39.38740234 5.37832031 39.51308594 4.27929688 39.64257812 C2.62510742 39.81950195 2.62510742 39.81950195 0.9375 40 C-0.18462891 40.12955078 -1.30675781 40.25910156 -2.46289062 40.39257812 C-5.22423783 40.70983929 -7.98635012 41.0160883 -10.75 41.3125 C-10.83086147 43.10343191 -10.88912702 44.89539628 -10.9375 46.6875 C-10.97230469 47.68523437 -11.00710937 48.68296875 -11.04296875 49.7109375 C-10.94628906 50.56945312 -10.84960938 51.42796875 -10.75 52.3125 C-7.07077133 54.76531911 -5.12740649 54.58073919 -0.75 54.5625 C0.4875 54.56765625 1.725 54.5728125 3 54.578125 C6.39673144 54.56501361 6.39673144 54.56501361 9.25 52.3125 C9.394375 51.178125 9.53875 50.04375 9.6875 48.875 C10.25 45.3125 10.25 45.3125 11.875 43.3125 C15.26592758 41.88474102 17.723747 42.51410309 21.25 43.3125 C23.03072742 45.09322742 22.50615294 47.58893877 22.5625 50 C22.50589224 55.30226045 22.02135049 58.34265738 18.25 62.3125 C11.53331816 67.48994225 6.06482243 67.54085799 -2.125 67.625 C-3.05828125 67.65400391 -3.9915625 67.68300781 -4.953125 67.71289062 C-11.73071606 67.77529054 -15.37604377 66.51815912 -20.39453125 61.75 C-24.9330139 56.1641752 -24.92409746 51.686678 -24.98828125 44.671875 C-24.996353 43.83086243 -25.00442474 42.98984985 -25.01274109 42.12335205 C-25.02655212 40.34478803 -25.03728757 38.56619785 -25.04516602 36.78759766 C-25.05667696 34.97794775 -25.07711482 33.16833156 -25.10668945 31.35888672 C-25.14957023 28.73381656 -25.16556328 26.10975285 -25.17578125 23.484375 C-25.19328934 22.68513611 -25.21079742 21.88589722 -25.22883606 21.06243896 C-25.20708783 15.3584877 -23.89383904 11.10037372 -20.75 6.3125 C-18.75 4.47265625 -18.75 4.47265625 -16.75 3.375 C-16.09 2.99472656 -15.43 2.61445313 -14.75 2.22265625 C-9.94152681 0.03442529 -5.19348575 0.06364566 0 0 Z M-11.75 15.3125 C-11.75 19.9325 -11.75 24.5525 -11.75 29.3125 C-8.64371259 29.05788628 -5.54106025 28.78458639 -2.4375 28.5 C-1.55642578 28.42974609 -0.67535156 28.35949219 0.23242188 28.28710938 C1.07998047 28.20654297 1.92753906 28.12597656 2.80078125 28.04296875 C3.58106689 27.97489014 4.36135254 27.90681152 5.1652832 27.83666992 C7.68071214 27.20420407 8.65491007 26.32799154 10.25 24.3125 C10.80618667 21.607906 10.67629934 19.03513177 10.25 16.3125 C8.43836733 13.63818511 7.37238923 13.35329641 4.25 12.3125 C2.65006557 12.16930449 1.04355688 12.09210474 -0.5625 12.0625 C-1.39394531 12.03671875 -2.22539062 12.0109375 -3.08203125 11.984375 C-6.45895926 12.24861823 -6.45895926 12.24861823 -11.75 15.3125 Z " fill="#FAFAFA" transform="translate(143.75,23.6875)"/>
<path d="M0 0 C3.88203144 3.59702154 5.8515995 6.94915369 6.23828125 12.29296875 C6.51344718 26.73193863 6.51344718 26.73193863 2 32 C-5.38132859 37.67794507 -17.99473426 37.19355829 -27 38 C-27 41.96 -27 45.92 -27 50 C-23.96570323 51.51714839 -20.82398333 51.14363916 -17.5 51.125 C-16.81035156 51.12886719 -16.12070312 51.13273437 -15.41015625 51.13671875 C-11.57833786 51.19040866 -11.57833786 51.19040866 -8 50 C-7.43865672 47.72344116 -7.10753632 45.44675666 -6.7578125 43.12890625 C-6 41 -6 41 -4.125 39.69921875 C-1.13092895 38.71403728 0.98612753 39.2137724 4 40 C6.45973778 42.45973778 6.32301675 43.29299385 6.375 46.6875 C6.24441319 52.01083301 5.28229135 54.79193416 2 59 C-4.55011603 63.88281377 -10.53984183 64.20764779 -18.375 64.25 C-19.32117188 64.270625 -20.26734375 64.29125 -21.2421875 64.3125 C-29.98452485 64.36161425 -29.98452485 64.36161425 -34 61 C-35.765625 59.24609375 -35.765625 59.24609375 -37.25 57.4375 C-37.75015625 56.83808594 -38.2503125 56.23867187 -38.765625 55.62109375 C-40.80498544 52.94281975 -41.13310262 51.22688894 -41.17700195 47.92089844 C-41.18983719 47.07952332 -41.20267242 46.23814819 -41.21589661 45.37127686 C-41.22328354 44.45984924 -41.23067047 43.54842163 -41.23828125 42.609375 C-41.246353 41.672005 -41.25442474 40.73463501 -41.26274109 39.76885986 C-41.27658686 37.78163505 -41.28730681 35.79438641 -41.29516602 33.80712891 C-41.31235312 30.77590455 -41.35623164 27.7457781 -41.40039062 24.71484375 C-41.41051983 22.78386219 -41.41903522 20.85287135 -41.42578125 18.921875 C-41.44328934 18.01854431 -41.46079742 17.11521362 -41.47883606 16.18450928 C-41.45974534 10.61185784 -40.73295903 7.4165748 -37 3 C-35 1.35546875 -35 1.35546875 -33 0.1875 C-32.01 -0.40998047 -32.01 -0.40998047 -31 -1.01953125 C-22.59897808 -5.13800098 -8.04888863 -4.6435896 0 0 Z M-28 12 C-29.38226016 14.76452033 -29.09525387 17.0461363 -29.0625 20.125 C-29.05347656 21.22070312 -29.04445313 22.31640625 -29.03515625 23.4453125 C-29.02355469 24.28835937 -29.01195312 25.13140625 -29 26 C-25.89444745 25.72202422 -22.79097058 25.42526358 -19.6875 25.125 C-18.80642578 25.04636719 -17.92535156 24.96773437 -17.01757812 24.88671875 C-16.17001953 24.80292969 -15.32246094 24.71914063 -14.44921875 24.6328125 C-13.66893311 24.55949707 -12.88864746 24.48618164 -12.0847168 24.41064453 C-9.70505767 24.08029789 -9.70505767 24.08029789 -7 22 C-6.55982299 19.63500496 -6.55982299 19.63500496 -6.6875 17 C-6.69330078 15.6696875 -6.69330078 15.6696875 -6.69921875 14.3125 C-6.78597593 11.80735945 -6.78597593 11.80735945 -9 10 C-15.2001846 7.91993807 -22.83715981 7.66987597 -28 12 Z " fill="#FAFAFA" transform="translate(305,27)"/>
<path d="M0 0 C3.97392649 2.38933368 6.81407017 6.01095283 8.87109375 10.125 C9.170941 14.70253014 9.14926603 19.28881623 9.18359375 23.875 C9.21259766 25.15117188 9.24160156 26.42734375 9.27148438 27.7421875 C9.35046109 39.38214046 9.35046109 39.38214046 4.87109375 44.125 C-0.69480276 49.54046688 -6.69646038 50.36156588 -14.14257812 50.30078125 C-14.94244141 50.28402344 -15.74230469 50.26726563 -16.56640625 50.25 C-17.39333984 50.24097656 -18.22027344 50.23195312 -19.07226562 50.22265625 C-21.09127333 50.19931512 -23.11012981 50.16345288 -25.12890625 50.125 C-25.11843262 50.90214355 -25.10795898 51.67928711 -25.09716797 52.47998047 C-25.05570343 55.986621 -25.02961047 59.49321006 -25.00390625 63 C-24.98714844 64.22332031 -24.97039063 65.44664063 -24.953125 66.70703125 C-24.94667969 67.87363281 -24.94023437 69.04023437 -24.93359375 70.2421875 C-24.92312012 71.32097168 -24.91264648 72.39975586 -24.90185547 73.51123047 C-25.12890625 76.125 -25.12890625 76.125 -27.12890625 78.125 C-29.00390625 78.35546875 -29.00390625 78.35546875 -31.12890625 78.3125 C-31.83015625 78.30605469 -32.53140625 78.29960938 -33.25390625 78.29296875 C-35.12890625 78.125 -35.12890625 78.125 -37.12890625 77.125 C-37.19847268 68.47567917 -37.2517511 59.82645492 -37.28434277 51.17691517 C-37.2999866 47.16040464 -37.32120117 43.14408578 -37.35522461 39.12768555 C-37.38786422 35.25029814 -37.40576892 31.37309488 -37.41353798 27.49558067 C-37.41907326 26.01761667 -37.42988244 24.53966254 -37.44609642 23.06177711 C-37.46793266 20.98863718 -37.47087071 18.91625436 -37.46948242 16.84301758 C-37.47614426 15.66387283 -37.48280609 14.48472809 -37.4896698 13.26985168 C-36.91956012 8.30008582 -34.87286364 5.83589262 -31.31640625 2.4375 C-22.77202423 -3.76136539 -9.69705694 -3.81283146 0 0 Z M-25.12890625 13.125 C-25.81767297 15.82084152 -25.81767297 15.82084152 -25.6171875 18.88671875 C-25.60107422 20.00498047 -25.58496094 21.12324219 -25.56835938 22.27539062 C-25.52646484 23.44263672 -25.48457031 24.60988281 -25.44140625 25.8125 C-25.41884766 26.99134766 -25.39628906 28.17019531 -25.37304688 29.38476562 C-25.31404526 32.29944548 -25.23176966 35.21159161 -25.12890625 38.125 C-22.56576126 38.20632187 -20.00522207 38.26564175 -17.44140625 38.3125 C-16.72017578 38.33763672 -15.99894531 38.36277344 -15.25585938 38.38867188 C-12.06013019 38.43244899 -9.22912463 38.15271439 -6.1484375 37.30078125 C-2.67298308 33.55643287 -3.41016526 29.02452917 -3.50390625 24.125 C-3.48457031 23.114375 -3.46523438 22.10375 -3.4453125 21.0625 C-3.46356103 18.31792089 -3.56821779 15.81177733 -4.12890625 13.125 C-6.71840511 10.57236234 -8.30522954 10.24571124 -11.84765625 9.7265625 C-12.76546875 9.73429687 -13.68328125 9.74203125 -14.62890625 9.75 C-15.54671875 9.74226563 -16.46453125 9.73453125 -17.41015625 9.7265625 C-20.72390263 10.21219775 -22.48357276 11.06843036 -25.12890625 13.125 Z " fill="#F9F9F9" transform="translate(37.12890625,12.875)"/>
<path d="M0 0 C4.39737035 4.39737035 5.15056477 7.98296118 5.1875 14.0625 C5.20167969 15.12597656 5.21585937 16.18945312 5.23046875 17.28515625 C5 20 5 20 3 22 C-1.33643601 22.31537716 -3.32653229 22.44897847 -7 20 C-7.41171025 17.67708744 -7.43871599 15.45006354 -7.49609375 13.09375 C-7.7951243 10.8735507 -7.7951243 10.8735507 -9.6875 9.734375 C-12.41624517 8.86781403 -14.70069018 8.73442552 -17.5625 8.75 C-18.51253906 8.74484375 -19.46257812 8.7396875 -20.44140625 8.734375 C-23.24099273 8.82423925 -23.24099273 8.82423925 -26 11 C-26.30407393 13.81354442 -26.42000562 16.40323454 -26.3984375 19.21875 C-26.40130768 20.03243042 -26.40417786 20.84611084 -26.40713501 21.68444824 C-26.40917791 23.40601293 -26.40363226 25.12760071 -26.39111328 26.84912109 C-26.3750621 29.48978394 -26.39095357 32.12891621 -26.41015625 34.76953125 C-26.40817386 36.44010756 -26.40433026 38.11068291 -26.3984375 39.78125 C-26.40451019 40.57398315 -26.41058289 41.36671631 -26.4168396 42.18347168 C-26.42027285 44.64159943 -26.42027285 44.64159943 -26 48 C-22.53767506 50.30821663 -21.08201684 50.27000989 -17 50.25 C-15.948125 50.25515625 -14.89625 50.2603125 -13.8125 50.265625 C-10.79349621 50.20467017 -10.79349621 50.20467017 -8 48 C-7.27560748 45.61406582 -7.27560748 45.61406582 -6.9375 42.9375 C-6.52734375 40.21484375 -6.52734375 40.21484375 -6 38 C-3.22899606 36.61449803 -1.0665294 36.8122533 2 37 C2.99 37.66 3.98 38.32 5 39 C5.88111853 44.74711548 5.79494843 50.25722845 3.375 55.5625 C-2.0001164 61.07906683 -6.6249921 63.13528948 -14.27148438 63.28320312 C-15.06876953 63.29287109 -15.86605469 63.30253906 -16.6875 63.3125 C-17.46544922 63.34150391 -18.24339844 63.37050781 -19.04492188 63.40039062 C-26.01269824 63.47593782 -31.28535756 61.57176652 -36.375 56.75 C-39.78581269 50.97785545 -40.25410598 44.86683712 -40.265625 38.28125 C-40.26753845 37.57907349 -40.2694519 36.87689697 -40.27142334 36.15344238 C-40.27277339 34.68123004 -40.26916025 33.2090053 -40.26074219 31.73681641 C-40.25002525 29.50525741 -40.26067746 27.27450322 -40.2734375 25.04296875 C-40.2721157 23.60156075 -40.26955287 22.16015325 -40.265625 20.71875 C-40.26336914 19.42904297 -40.26111328 18.13933594 -40.25878906 16.81054688 C-39.81938792 10.34057234 -38.81629696 4.68251094 -34 0 C-23.7637399 -5.97115173 -10.23624308 -6.20985392 0 0 Z " fill="#FAFAFA" transform="translate(365,28)"/>
<path d="M0 0 C0.680625 -0.01224609 1.36125 -0.02449219 2.0625 -0.03710938 C3.83490756 -0.04236355 5.6067994 0.06534094 7.375 0.1875 C9.375 2.1875 9.375 2.1875 9.625 5.625 C9.375 9.1875 9.375 9.1875 7.375 12.1875 C4.9140625 12.62890625 4.9140625 12.62890625 2 12.75 C-3.11827499 12.96672447 -3.11827499 12.96672447 -7.625 15.1875 C-8.44370185 18.74956661 -8.44370185 18.74956661 -8.625 22.1875 C-7.86574219 22.12949219 -7.10648438 22.07148438 -6.32421875 22.01171875 C1.76612873 21.64445265 1.76612873 21.64445265 4.6875 24.25 C5.58857288 28.10003866 4.73769733 30.52973349 3.375 34.1875 C-0.585 34.1875 -4.545 34.1875 -8.625 34.1875 C-8.60928955 35.77208008 -8.5935791 37.35666016 -8.57739258 38.98925781 C-8.52312786 44.86339238 -8.48866221 50.73750476 -8.46020508 56.61181641 C-8.44511064 59.15514857 -8.42463312 61.69845467 -8.39868164 64.24169922 C-8.36232823 67.8955732 -8.34528003 71.54910329 -8.33203125 75.203125 C-8.31654739 76.34179016 -8.30106354 77.48045532 -8.28511047 78.65362549 C-8.28488388 79.71442322 -8.28465729 80.77522095 -8.28442383 81.86816406 C-8.27776199 82.80082092 -8.27110016 83.73347778 -8.26423645 84.69439697 C-8.6930282 87.65761763 -9.5847277 89.02707222 -11.625 91.1875 C-14.46068858 91.85009654 -16.66739226 91.46917693 -19.625 91.1875 C-21.625 89.1875 -21.625 89.1875 -21.86550903 86.85897827 C-21.86106781 85.8863504 -21.85662659 84.91372253 -21.85205078 83.91162109 C-21.85189972 82.8106308 -21.85174866 81.7096405 -21.85159302 80.57528687 C-21.83610916 78.78618393 -21.83610916 78.78618393 -21.8203125 76.9609375 C-21.8174826 75.74298492 -21.81465271 74.52503235 -21.81173706 73.27017212 C-21.80051256 69.36751617 -21.77540372 65.46508697 -21.75 61.5625 C-21.73997314 58.92187831 -21.73084678 56.28125303 -21.72265625 53.640625 C-21.70056581 47.1561722 -21.66706592 40.6718523 -21.625 34.1875 C-24.265 34.1875 -26.905 34.1875 -29.625 34.1875 C-31.36245313 31.53021875 -31.63331972 30.29149645 -31.375 27.0625 C-30.625 24.1875 -30.625 24.1875 -28.625 22.1875 C-25 22.0625 -25 22.0625 -21.625 22.1875 C-21.67140625 21.54683594 -21.7178125 20.90617187 -21.765625 20.24609375 C-22.03089289 13.88913828 -21.5062082 10.2943529 -17.625 5.1875 C-11.77988364 0.56011621 -7.27544118 0.00696881 0 0 Z " fill="#FAFAFA" transform="translate(253.625,-0.1875)"/>
<path d="M0 0 C3.78245414 2.36200463 6.22290515 5.09721813 7.375 9.4375 C7.83222428 14.14112908 8.04971622 18.75095757 7.375 23.4375 C3.88631349 25.76329101 2.47781481 25.85615457 -1.625 25.4375 C-3.7734375 24.23828125 -3.7734375 24.23828125 -5.625 22.4375 C-6.19921875 19.9921875 -6.19921875 19.9921875 -6.3125 17.3125 C-6.21077406 14.0685559 -6.21077406 14.0685559 -7.625 11.4375 C-9.49821948 11.27696185 -9.49821948 11.27696185 -11.625 11.3125 C-12.346875 11.30992188 -13.06875 11.30734375 -13.8125 11.3046875 C-15.64589415 11.24054724 -15.64589415 11.24054724 -16.625 12.4375 C-16.73191439 13.95067078 -16.77120662 15.46869621 -16.78271484 16.9855957 C-16.79297699 17.95362625 -16.80323914 18.9216568 -16.81381226 19.91902161 C-16.82111359 20.97312729 -16.82841492 22.02723297 -16.8359375 23.11328125 C-16.86400819 25.32487717 -16.89267267 27.53646561 -16.921875 29.74804688 C-16.96315339 33.25056739 -17.00002218 36.75294875 -17.02636719 40.25561523 C-17.05393749 43.62513414 -17.09981496 46.99400926 -17.1484375 50.36328125 C-17.15169037 51.41131424 -17.15494324 52.45934723 -17.15829468 53.53913879 C-17.17486115 54.51662582 -17.19142761 55.49411285 -17.20849609 56.5012207 C-17.21658295 57.35980179 -17.2246698 58.21838287 -17.23300171 59.10298157 C-17.71000563 61.94374511 -18.67916511 63.34178389 -20.625 65.4375 C-23.46068858 66.10009654 -25.66739226 65.71917693 -28.625 65.4375 C-31.17069692 62.89180308 -30.88195751 61.97104969 -30.8996582 58.44042969 C-30.90919022 57.39884705 -30.91872223 56.3572644 -30.92854309 55.28411865 C-30.92763168 54.15395325 -30.92672028 53.02378784 -30.92578125 51.859375 C-30.93006638 50.70004456 -30.9343515 49.54071411 -30.93876648 48.34625244 C-30.94451937 45.88823093 -30.94500303 43.4301924 -30.94067383 40.97216797 C-30.93752459 37.2168245 -30.96092485 33.4622766 -30.98632812 29.70703125 C-30.98860212 27.32031349 -30.98930415 24.93359362 -30.98828125 22.546875 C-30.997491 21.42480652 -31.00670074 20.30273804 -31.01618958 19.14666748 C-30.97808238 12.6972176 -30.67283272 7.7790041 -26.125 2.79296875 C-18.93682616 -2.80407286 -8.47924375 -3.75074298 0 0 Z " fill="#FAFAFA" transform="translate(212.625,25.5625)"/>
<path d="M0 0 C0.70125 0.00515625 1.4025 0.0103125 2.125 0.015625 C2.82625 0.01046875 3.5275 0.0053125 4.25 0 C6.125 0.265625 6.125 0.265625 8.125 2.265625 C8.3203125 5.0859375 8.3203125 5.0859375 8.25 8.390625 C8.23195313 9.48632812 8.21390625 10.58203125 8.1953125 11.7109375 C8.17210937 12.55398437 8.14890625 13.39703125 8.125 14.265625 C8.82367188 14.24242187 9.52234375 14.21921875 10.2421875 14.1953125 C11.15226562 14.17726563 12.06234375 14.15921875 13 14.140625 C14.35738281 14.10582031 14.35738281 14.10582031 15.7421875 14.0703125 C18.125 14.265625 18.125 14.265625 20.125 16.265625 C20.390625 18.140625 20.390625 18.140625 20.375 20.265625 C20.38273437 21.3175 20.38273437 21.3175 20.390625 22.390625 C20.125 24.265625 20.125 24.265625 18.125 26.265625 C15.7421875 26.4609375 15.7421875 26.4609375 13 26.390625 C12.08992188 26.37257813 11.17984375 26.35453125 10.2421875 26.3359375 C9.54351562 26.31273438 8.84484375 26.28953125 8.125 26.265625 C8.21872232 31.72856932 8.32485824 37.19108026 8.44238281 42.65356445 C8.48060866 44.51091956 8.51547263 46.36834708 8.546875 48.22583008 C8.59266461 50.89951412 8.65063579 53.57270242 8.7109375 56.24609375 C8.72248871 57.07336472 8.73403992 57.90063568 8.74594116 58.75297546 C8.85639842 63.09146011 9.34223865 66.25192459 11.125 70.265625 C10.9375 73.953125 10.9375 73.953125 10.125 77.265625 C6.62934664 79.59606058 5.2384271 79.85325744 1.125 79.265625 C-1.89776722 76.24285778 -3.74166941 73.5597537 -3.99525452 69.19648743 C-3.99303391 68.4037291 -3.99081329 67.61097076 -3.98852539 66.79418945 C-3.98844986 65.89348221 -3.98837433 64.99277496 -3.98829651 64.06477356 C-3.98313522 63.09593735 -3.97797394 62.12710114 -3.97265625 61.12890625 C-3.9712413 60.13432907 -3.96982635 59.13975189 -3.96836853 58.11503601 C-3.96276761 54.93603518 -3.95021496 51.75710457 -3.9375 48.578125 C-3.93248512 46.42382914 -3.92792219 44.26953218 -3.92382812 42.11523438 C-3.91279788 36.83200726 -3.89605886 31.54882115 -3.875 26.265625 C-4.99003906 26.28882812 -6.10507812 26.31203125 -7.25390625 26.3359375 C-10.875 26.265625 -10.875 26.265625 -12.8125 25.140625 C-14.36224515 22.40578061 -14.19662076 20.3531843 -13.875 17.265625 C-12.885 15.780625 -12.885 15.780625 -11.875 14.265625 C-9.9296875 13.97265625 -9.9296875 13.97265625 -7.75 14.078125 C-6.47125 14.14 -5.1925 14.201875 -3.875 14.265625 C-3.89820313 13.42257813 -3.92140625 12.57953125 -3.9453125 11.7109375 C-3.96335937 10.61523438 -3.98140625 9.51953125 -4 8.390625 C-4.02320313 7.30007812 -4.04640625 6.20953125 -4.0703125 5.0859375 C-3.84769083 1.87128058 -3.36531905 0.47675353 0 0 Z " fill="#FAFAFA" transform="translate(391.875,11.734375)"/>
</svg>
