<svg width="42" height="76" viewBox="0 0 42 76" fill="none" xmlns="http://www.w3.org/2000/svg">
<path id="Vector" d="M12.4258 40.5657H20.8715C29.674 40.5657 33.9564 37.999 33.9564 32.8656V15.1433C33.9564 12.5766 32.8858 10.7433 30.6257 9.39884C28.3656 8.05438 25.1538 7.44327 20.7525 7.44327C11.95 7.44327 7.66769 10.01 7.66769 15.1433V73.5659C7.66769 75.0325 6.35921 75.8881 3.86119 75.8881C1.36317 75.8881 0.0546875 75.1548 0.0546875 73.5659V16.1211C0.0546875 10.9877 1.83899 7.19882 5.40758 4.50992C8.97618 1.82101 14.0912 0.476562 20.8715 0.476562C27.6518 0.476562 32.7668 1.82101 36.4544 4.50992C40.023 7.19882 41.8073 11.11 41.8073 16.1211V31.8879C41.8073 36.899 40.023 40.8101 36.4544 43.499C32.8858 46.1879 27.7708 47.5324 20.9905 47.5324H12.5448C11.2363 47.5324 10.6415 46.4324 10.6415 44.1101C10.6415 41.7879 11.2363 40.6879 12.5448 40.6879L12.4258 40.5657Z" fill="#FAFAFA"/>
</svg>
