<svg width="24" height="24" viewBox="0 0 24 24" fill="none" xmlns="http://www.w3.org/2000/svg">
<g id="Icon/ M / bell">
<path id="Union" fill-rule="evenodd" clip-rule="evenodd" d="M11.0284 19.5645C11.3194 19.5742 11.6114 19.5801 11.9044 19.5801C12.1602 19.5801 12.4151 19.5762 12.671 19.5684C12.5128 19.8574 12.2051 20.0605 11.8536 20.0605C11.4991 20.0605 11.1846 19.8594 11.0284 19.5645ZM9.44538 19.457C9.07136 19.4199 8.69831 19.373 8.32429 19.3203L4.88484 18.8301C4.17488 18.8008 3.53425 18.4004 3.21491 17.7598C2.87409 17.0996 2.94441 16.3105 3.38484 15.7207L4.32429 14.4297C4.71491 13.8906 4.92488 13.2598 4.93464 12.5898L4.95417 9.89062C4.98445 6.08984 8.0948 3 11.8946 3C15.6944 3 18.8341 6.10938 18.8341 9.93945V12.5605C18.8341 13.25 19.0548 13.9004 19.4649 14.4492L20.4044 15.6992C20.8546 16.3008 20.9249 17.0801 20.5841 17.75C20.2647 18.4004 19.6241 18.8105 18.9044 18.8301L15.4942 19.3203C15.0841 19.3789 14.6729 19.4277 14.2608 19.4668C14.0968 20.6484 13.0792 21.5605 11.8536 21.5605C10.6241 21.5605 9.60456 20.6426 9.44538 19.457ZM6.79402 9.89062C6.81452 7.09961 9.10456 4.83008 11.8946 4.83008L11.9044 4.84961C14.7149 4.84961 17.005 7.14062 17.005 9.94922V12.5703C17.005 13.6406 17.3643 14.6992 18.005 15.5605L18.9444 16.8105C18.9522 16.8184 18.9718 16.8477 18.9669 16.8887C18.9649 16.9023 18.961 16.916 18.9542 16.9297C18.9249 16.9902 18.8741 16.9902 18.8546 16.9902H18.7247L15.255 17.4902C14.087 17.6602 12.9073 17.7402 11.7266 17.7305C10.6837 17.7207 9.6407 17.6406 8.60456 17.4902L5.10456 16.9902H4.97468C4.95906 16.9902 4.92488 16.9902 4.89656 16.9609L4.87409 16.9297C4.83406 16.8691 4.87409 16.8105 4.87409 16.8105L5.81452 15.5195C6.43464 14.6602 6.77449 13.6602 6.77449 12.5996L6.79402 9.89062Z" fill="white"/>
</g>
</svg>
