<svg width="101" height="22" viewBox="0 0 101 22" fill="none" xmlns="http://www.w3.org/2000/svg">
<g id="logo/text/black">
<g id="Layer_1">
<path id="Vector" d="M4.11437 12.9935H6.17253C8.31765 12.9935 9.36122 12.3904 9.36122 11.1843V7.02028C9.36122 6.41722 9.10032 5.98646 8.54955 5.67057C7.99878 5.35469 7.2161 5.2111 6.14354 5.2111C3.99842 5.2111 2.95485 5.81416 2.95485 7.02028V20.7471C2.95485 21.0917 2.63598 21.2927 2.02723 21.2927C1.41848 21.2927 1.09961 21.1204 1.09961 20.7471V7.25002C1.09961 6.0439 1.53443 5.15367 2.40407 4.52189C3.27372 3.89011 4.5202 3.57422 6.17253 3.57422C7.82485 3.57422 9.07133 3.89011 9.96997 4.52189C10.8396 5.15367 11.2744 6.07262 11.2744 7.25002V10.9545C11.2744 12.1319 10.8396 13.0509 9.96997 13.6827C9.10032 14.3145 7.85384 14.6303 6.20151 14.6303H4.14336C3.82449 14.6303 3.67955 14.3719 3.67955 13.8263C3.67955 13.2806 3.82449 13.0222 4.14336 13.0222L4.11437 12.9935Z" fill="white"/>
<path id="Vector (Stroke)" fill-rule="evenodd" clip-rule="evenodd" d="M6.17226 4.07005C4.57433 4.07005 3.44951 4.37714 2.69994 4.92169C1.9734 5.4495 1.60006 6.18305 1.60006 7.24989V20.738C1.65213 20.7622 1.77829 20.7966 2.02696 20.7966C2.2777 20.7966 2.40457 20.755 2.45387 20.7281V7.02015C2.45387 6.24137 2.80897 5.62428 3.49478 5.23339C4.13742 4.86711 5.04021 4.71501 6.14327 4.71501C7.246 4.71501 8.13513 4.85981 8.80019 5.24124C9.13183 5.43145 9.40459 5.67296 9.59164 5.98348C9.77963 6.29555 9.86166 6.64515 9.86166 7.02015V11.1841C9.86166 11.9629 9.50656 12.58 8.82075 12.9709C8.17811 13.3372 7.27533 13.4893 6.17226 13.4893H5.32281L5.3518 13.518H4.20843C4.20549 13.5296 4.20246 13.5432 4.19952 13.5592C4.18786 13.6226 4.18 13.7098 4.18 13.8261C4.18 13.9425 4.18786 14.0297 4.19952 14.0931C4.20246 14.1091 4.20549 14.1227 4.20843 14.1342H6.20125C7.79918 14.1342 8.924 13.8272 9.67357 13.2826C10.3984 12.7561 10.7735 11.9949 10.7735 10.9544V7.24989C10.7735 6.21088 10.3994 5.45043 9.67671 4.92397C8.89434 4.37525 7.76531 4.07005 6.17226 4.07005ZM3.45529 12.4974H6.17226C7.21431 12.4974 7.90587 12.3479 8.3213 12.1112C8.69356 11.899 8.86024 11.6115 8.86024 11.1841V7.02015C8.86024 6.7921 8.81182 6.62479 8.73168 6.49175C8.65059 6.35714 8.51751 6.22533 8.29839 6.09965C7.86189 5.84931 7.18567 5.70694 6.14327 5.70694C5.10122 5.70694 4.40966 5.85636 3.99424 6.09314C3.62198 6.30532 3.45529 6.59282 3.45529 7.02015V12.4974ZM3.45529 14.8194V20.747C3.45529 21.1019 3.27594 21.395 2.97816 21.5734C2.71096 21.7335 2.37391 21.7886 2.02696 21.7886C1.69185 21.7886 1.35332 21.7441 1.08318 21.5885C0.769833 21.4081 0.598633 21.1064 0.598633 20.747V7.24989C0.598633 5.90449 1.09493 4.85757 2.10768 4.12183C3.09739 3.40282 4.46555 3.07812 6.17226 3.07812C7.8817 3.07812 9.24474 3.40388 10.2595 4.11731L10.2627 4.11955L10.2658 4.12183C11.2803 4.85884 11.7749 5.93559 11.7749 7.24989V10.9544C11.7749 12.2687 11.2803 13.3455 10.2658 14.0825C9.27612 14.8015 7.90796 15.1262 6.20125 15.1262H4.14309C3.99406 15.1262 3.83675 15.0955 3.68947 15.0129C3.59643 14.9608 3.51891 14.8944 3.45529 14.8194Z" fill="white"/>
<path id="Vector_2" d="M25.5366 10.2369V10.9261C25.5366 11.7877 25.4206 12.4482 25.1887 12.9651C24.9568 13.482 24.58 13.8553 24.0292 14.085C23.4784 14.3435 22.6957 14.5158 21.7101 14.6019L17.13 15.0327V17.8183C17.13 19.0244 18.1446 19.6275 20.1738 19.6275C22.2029 19.6275 22.2319 19.4839 22.8117 19.2254C23.3914 18.967 23.6523 18.5649 23.6523 18.048V17.1578C23.6523 16.8132 23.9712 16.6122 24.58 16.6122C25.1887 16.6122 25.5076 16.7845 25.5076 17.1578V17.8183C25.5076 20.1156 23.7973 21.2643 20.3477 21.2643C16.8981 21.2643 17.4489 20.9484 16.5502 20.3167C15.6516 19.6849 15.2168 18.7659 15.2168 17.5885V10.2656C15.2168 9.05952 15.6806 8.16929 16.6372 7.53751C17.5938 6.90573 18.9273 6.58984 20.6955 6.58984C22.4638 6.58984 23.5654 6.87702 24.348 7.48008C25.1307 8.08314 25.5366 8.97337 25.5366 10.2369ZM17.13 10.0646V13.4533L21.5362 13.0225C22.4058 12.9363 22.9566 12.764 23.2465 12.5056C23.5364 12.2471 23.6523 11.7302 23.6523 10.9836V10.0933C23.6523 9.49028 23.3625 9.05952 22.8117 8.74363C22.2609 8.42775 21.4202 8.28416 20.3767 8.28416C19.3331 8.28416 18.5214 8.42775 17.9707 8.74363C17.4199 9.05952 17.13 9.519 17.13 10.0933V10.0646Z" fill="white"/>
<path id="Vector (Stroke)_2" fill-rule="evenodd" clip-rule="evenodd" d="M20.6953 7.08568C18.9785 7.08568 17.7569 7.39381 16.9147 7.95003C16.1068 8.48361 15.7172 9.21368 15.7172 10.2655V17.5884C15.7172 18.6273 16.0908 19.3855 16.8398 19.9121C17.0555 20.0637 17.2073 20.207 17.3168 20.3104C17.339 20.3313 17.3594 20.3505 17.3783 20.3679C17.4843 20.4655 17.5543 20.5186 17.6752 20.5657C17.9768 20.683 18.6013 20.7682 20.3474 20.7682C22.032 20.7682 23.2032 20.4849 23.9408 19.9916C24.643 19.522 25.0066 18.8257 25.0066 17.8181V17.1667C24.9545 17.1424 24.8284 17.108 24.5797 17.108C24.329 17.108 24.2021 17.1496 24.1528 17.1765V18.0479C24.1528 18.3928 24.0642 18.7241 23.8611 19.0154C23.6601 19.3036 23.3695 19.5204 23.0169 19.6776C22.9669 19.6998 22.9171 19.7236 22.8659 19.7482C22.6719 19.8409 22.4574 19.9434 22.1373 20.0089C21.7485 20.0885 21.1877 20.1233 20.1735 20.1233C19.1252 20.1233 18.2557 19.9704 17.633 19.6003C16.9696 19.206 16.629 18.5892 16.629 17.8181V14.5815L21.6642 14.1079L21.6658 14.1078C22.6262 14.0238 23.3413 13.8588 23.8145 13.6367L23.8245 13.632L23.8346 13.6278C24.2677 13.4471 24.5506 13.1654 24.7309 12.7635C24.9242 12.3327 25.0356 11.7481 25.0356 10.926V10.2368C25.0356 9.09067 24.6753 8.36063 24.0403 7.87142C23.3872 7.36818 22.42 7.08568 20.6953 7.08568ZM16.3592 7.12473C17.4302 6.4174 18.8756 6.09375 20.6953 6.09375C22.5071 6.09375 23.743 6.38559 24.6552 7.08848C25.5857 7.80539 26.037 8.85581 26.037 10.2368V10.926C26.037 11.8269 25.9165 12.5634 25.646 13.1663C25.3639 13.7951 24.8964 14.2585 24.2334 14.5377C23.6065 14.8296 22.7604 15.0078 21.7556 15.0957C21.755 15.0958 21.7544 15.0958 21.7539 15.0959L17.6305 15.4837V17.8181C17.6305 18.2532 17.7971 18.541 18.1483 18.7498C18.5403 18.9827 19.1926 19.1314 20.1735 19.1314C21.1885 19.1314 21.6568 19.0944 21.9347 19.0375C22.1254 18.9985 22.2136 18.9566 22.3789 18.8781C22.4406 18.8488 22.5132 18.8143 22.6059 18.773C22.8331 18.6717 22.9628 18.5582 23.0372 18.4516C23.1094 18.348 23.1514 18.2198 23.1514 18.0479V17.1576C23.1514 16.8027 23.3307 16.5096 23.6285 16.3312C23.8957 16.1712 24.2327 16.1161 24.5797 16.1161C24.9148 16.1161 25.2533 16.1605 25.5235 16.3161C25.8368 16.4966 26.008 16.7982 26.008 17.1576V17.8181C26.008 19.108 25.5165 20.1347 24.5012 20.8137C23.5211 21.4692 22.1125 21.7602 20.3474 21.7602C18.644 21.7602 17.8191 21.6874 17.309 21.4889C17.024 21.378 16.8477 21.2337 16.6964 21.0944C16.6676 21.0679 16.6406 21.0424 16.6142 21.0177C16.5077 20.9175 16.4125 20.8281 16.2602 20.721C15.2119 19.984 14.7158 18.9043 14.7158 17.5884V10.2655C14.7158 8.90511 15.2539 7.85471 16.3592 7.12473ZM17.7195 8.3143C18.3853 7.93246 19.3041 7.78806 20.3764 7.78806C21.4458 7.78806 22.3952 7.93167 23.0623 8.3143C23.3896 8.50201 23.6675 8.74007 23.8621 9.04662C24.059 9.35666 24.1528 9.70869 24.1528 10.0932V10.9834C24.1528 11.3775 24.1227 11.7388 24.0432 12.0494C23.964 12.3588 23.826 12.6558 23.5812 12.8741C23.1618 13.248 22.4646 13.4288 21.5858 13.5159L16.629 14.0005V10.0645H16.6292C16.6392 9.30354 17.044 8.70172 17.7195 8.3143ZM17.6305 10.0932V12.9058L21.4861 12.5289C22.3466 12.4436 22.7509 12.2798 22.9113 12.1368C22.9563 12.0966 23.0212 12.006 23.0725 11.8057C23.1235 11.6065 23.1514 11.3361 23.1514 10.9834V10.0932C23.1514 9.87467 23.1002 9.7098 23.0144 9.57472C22.9264 9.43615 22.784 9.30089 22.5605 9.17271C22.1261 8.92356 21.3942 8.77999 20.3764 8.77999C19.3615 8.77999 18.6571 8.92277 18.2213 9.17271C17.8037 9.41221 17.6305 9.71906 17.6305 10.0932Z" fill="white"/>
<path id="Vector_3" d="M40.5522 10.2369V10.9261C40.5522 11.7877 40.4362 12.4482 40.2043 12.9651C39.9724 13.482 39.5956 13.8553 39.0448 14.085C38.494 14.3435 37.7114 14.5158 36.7258 14.6019L32.1456 15.0327V17.8183C32.1456 19.0244 33.1602 19.6275 35.1894 19.6275C37.2186 19.6275 37.2475 19.4839 37.8273 19.2254C38.3781 18.967 38.668 18.5649 38.668 18.048V17.1578C38.668 16.8132 38.9868 16.6122 39.5956 16.6122C40.2043 16.6122 40.5232 16.7845 40.5232 17.1578V17.8183C40.5232 20.1156 38.8129 21.2643 35.3633 21.2643C31.9137 21.2643 32.4645 20.9484 31.5659 20.3167C30.6672 19.6849 30.2324 18.7659 30.2324 17.5885V10.2656C30.2324 9.05952 30.6962 8.16929 31.6528 7.53751C32.6094 6.90573 33.9429 6.58984 35.7112 6.58984C37.4794 6.58984 38.581 6.87702 39.3637 7.48008C40.1464 8.08314 40.5522 8.97337 40.5522 10.2369ZM32.1456 10.0646V13.4533L36.5518 13.0225C37.4215 12.9363 37.9722 12.764 38.2621 12.5056C38.552 12.2471 38.668 11.7302 38.668 10.9836V10.0933C38.668 9.49028 38.3781 9.05952 37.8273 8.74363C37.2765 8.42775 36.4359 8.28416 35.3923 8.28416C34.3487 8.28416 33.5371 8.42775 32.9863 8.74363C32.4355 9.05952 32.1456 9.519 32.1456 10.0933V10.0646Z" fill="white"/>
<path id="Vector (Stroke)_3" fill-rule="evenodd" clip-rule="evenodd" d="M35.7109 7.08568C33.9941 7.08568 32.7726 7.39381 31.9303 7.95003C31.1224 8.48361 30.7329 9.21368 30.7329 10.2655V17.5884C30.7329 18.6273 31.1064 19.3855 31.8554 19.9121C32.0711 20.0637 32.223 20.207 32.3325 20.3104C32.3546 20.3313 32.375 20.3505 32.3939 20.3679C32.4999 20.4655 32.57 20.5186 32.6908 20.5657C32.9924 20.683 33.6169 20.7682 35.363 20.7682C37.0476 20.7682 38.2189 20.4849 38.9564 19.9916C39.6586 19.522 40.0222 18.8257 40.0222 17.8181V17.1667C39.9701 17.1424 39.844 17.108 39.5953 17.108C39.3446 17.108 39.2177 17.1496 39.1684 17.1765V18.0479C39.1684 18.7958 38.728 19.3513 38.0414 19.6735L38.037 19.6756L38.0325 19.6776C37.9826 19.6998 37.9328 19.7236 37.8815 19.7482C37.6875 19.8409 37.4731 19.9434 37.1529 20.0089C36.7641 20.0885 36.2033 20.1233 35.1891 20.1233C34.1408 20.1233 33.2713 19.9704 32.6487 19.6003C31.9853 19.206 31.6447 18.5892 31.6447 17.8181V14.5815L36.6798 14.1079L36.6815 14.1078C37.6418 14.0238 38.3569 13.8588 38.8302 13.6367L38.8401 13.632L38.8502 13.6278C39.2834 13.4471 39.5662 13.1654 39.7465 12.7635C39.9398 12.3327 40.0512 11.7481 40.0512 10.926V10.2368C40.0512 9.09067 39.6909 8.36063 39.056 7.87142C38.4029 7.36818 37.4357 7.08568 35.7109 7.08568ZM31.3748 7.12473C32.4458 6.4174 33.8912 6.09375 35.7109 6.09375C37.5227 6.09375 38.7586 6.38559 39.6708 7.08848C40.6013 7.80539 41.0526 8.85581 41.0526 10.2368V10.926C41.0526 11.8269 40.9321 12.5634 40.6616 13.1663C40.3795 13.7951 39.912 14.2585 39.249 14.5377C38.6221 14.8296 37.776 15.0078 36.7712 15.0957C36.7706 15.0958 36.7701 15.0958 36.7695 15.0959L32.6461 15.4837V17.8181C32.6461 18.2532 32.8128 18.541 33.1639 18.7498C33.5559 18.9827 34.2083 19.1314 35.1891 19.1314C36.2041 19.1314 36.6724 19.0944 36.9503 19.0375C37.141 18.9985 37.2292 18.9566 37.3945 18.8781C37.4552 18.8493 37.5263 18.8155 37.6168 18.7751C38.0286 18.5807 38.167 18.3328 38.167 18.0479V17.1576C38.167 16.8027 38.3463 16.5096 38.6441 16.3312C38.9113 16.1712 39.2484 16.1161 39.5953 16.1161C39.9304 16.1161 40.269 16.1605 40.5391 16.3161C40.8524 16.4966 41.0236 16.7982 41.0236 17.1576V17.8181C41.0236 19.108 40.5321 20.1347 39.5168 20.8137C38.5368 21.4692 37.1281 21.7602 35.363 21.7602C33.6596 21.7602 32.8347 21.6874 32.3246 21.4889C32.0397 21.378 31.8633 21.2337 31.712 21.0944C31.6833 21.0679 31.6562 21.0424 31.6298 21.0177C31.5233 20.9175 31.4281 20.8281 31.2758 20.721C30.2276 19.984 29.7314 18.9043 29.7314 17.5884V10.2655C29.7314 8.90511 30.2695 7.85471 31.3748 7.12473ZM32.7351 8.3143C33.4009 7.93246 34.3198 7.78806 35.392 7.78806C36.4614 7.78806 37.4108 7.93167 38.0779 8.3143C38.4052 8.50201 38.6831 8.74007 38.8778 9.04662C39.0746 9.35666 39.1684 9.70869 39.1684 10.0932V10.9834C39.1684 11.3775 39.1383 11.7388 39.0588 12.0494C38.9797 12.3588 38.8416 12.6558 38.5968 12.8741C38.1774 13.248 37.4802 13.4288 36.6014 13.5159L31.6447 14.0005V10.0645H31.6448C31.6548 9.30354 32.0596 8.70172 32.7351 8.3143ZM32.6461 10.0932V12.9058L36.5017 12.5289C37.3622 12.4436 37.7665 12.2798 37.9269 12.1368C37.972 12.0966 38.0369 12.006 38.0881 11.8057C38.1391 11.6065 38.167 11.3361 38.167 10.9834V10.0932C38.167 9.87468 38.1158 9.7098 38.0301 9.57472C37.9421 9.43615 37.7996 9.30089 37.5761 9.17271C37.1417 8.92356 36.4098 8.77999 35.392 8.77999C34.3772 8.77999 33.6727 8.92277 33.2369 9.17271C32.8193 9.41221 32.6461 9.71906 32.6461 10.0932Z" fill="white"/>
<path id="Vector_4" d="M51.7415 11.2133V10.0359C51.7415 8.82979 51.0168 8.22672 49.5674 8.22672C48.118 8.22672 48.3209 8.37031 47.9441 8.6862C47.5673 9.00209 47.3933 9.46156 47.3933 10.0359V20.7187C47.3933 21.0633 47.0745 21.2643 46.4657 21.2643C45.857 21.2643 45.5381 21.092 45.5381 20.7187V10.2656C45.5381 9.05952 45.8859 8.16929 46.5817 7.53751C47.2774 6.90573 48.292 6.58984 49.5964 6.58984C50.9009 6.58984 51.9445 6.90573 52.6402 7.50879C53.3359 8.11186 53.6837 9.03081 53.6837 10.2369V11.2133C53.6837 11.5579 53.3649 11.7589 52.7561 11.7589C52.1474 11.7589 51.8285 11.5866 51.8285 11.2133H51.7415Z" fill="white"/>
<path id="Vector (Stroke)_4" fill-rule="evenodd" clip-rule="evenodd" d="M49.5962 7.08568C48.3671 7.08568 47.492 7.38335 46.9198 7.90296C46.3531 8.41759 46.0385 9.15988 46.0385 10.2655V20.7096C46.0906 20.7338 46.2168 20.7682 46.4654 20.7682C46.7162 20.7682 46.843 20.7266 46.8923 20.6997V10.0358C46.8923 9.35924 47.1013 8.74258 47.6204 8.30748C47.668 8.26755 47.6938 8.24019 47.7317 8.2C47.7487 8.18198 47.7681 8.16138 47.793 8.1359C47.8739 8.05322 47.9828 7.95558 48.156 7.88202C48.3133 7.81525 48.4941 7.78083 48.7065 7.76034C48.9214 7.7396 49.1996 7.73063 49.5672 7.73063C50.3498 7.73063 51.0301 7.89165 51.5198 8.29915C52.0262 8.72056 52.242 9.3314 52.242 10.0358V10.7172H52.3289V11.2042C52.381 11.2284 52.5072 11.2628 52.7559 11.2628C53.0066 11.2628 53.1335 11.2212 53.1828 11.1943V10.2368C53.1828 9.12343 52.8641 8.36209 52.3102 7.88189C51.7369 7.38495 50.8283 7.08568 49.5962 7.08568ZM51.457 11.7091C51.5389 11.8485 51.6584 11.9662 51.8121 12.0547C52.0822 12.2103 52.4207 12.2548 52.7559 12.2548C53.1028 12.2548 53.4398 12.1997 53.707 12.0396C54.0048 11.8613 54.1842 11.5682 54.1842 11.2132V10.2368C54.1842 8.93792 53.8071 7.86136 52.9697 7.13544C52.1515 6.42626 50.9729 6.09375 49.5962 6.09375C48.2163 6.09375 47.0623 6.42786 46.243 7.1718C45.4183 7.92073 45.0371 8.95891 45.0371 10.2655V20.7186C45.0371 21.078 45.2083 21.3797 45.5217 21.5601C45.7918 21.7157 46.1303 21.7602 46.4654 21.7602C46.8124 21.7602 47.1494 21.7051 47.4166 21.545C47.7144 21.3666 47.8938 21.0735 47.8938 20.7186V10.0358C47.8938 9.56363 48.0327 9.26134 48.2673 9.06466C48.3646 8.98307 48.4443 8.89825 48.4881 8.85155C48.4981 8.84095 48.5062 8.83231 48.5123 8.82612C48.5407 8.797 48.5454 8.79546 48.5491 8.79427C48.5496 8.7941 48.55 8.79395 48.5506 8.79373C48.5708 8.78512 48.6346 8.7639 48.8036 8.7476C48.97 8.73154 49.2101 8.72256 49.5672 8.72256C50.2339 8.72256 50.6407 8.86307 50.8757 9.05863C51.094 9.24029 51.2406 9.53404 51.2406 10.0358V11.7091H51.457Z" fill="white"/>
<path id="Vector_5" d="M75.8012 10.2369V10.9261C75.8012 11.7877 75.6853 12.4482 75.4534 12.9651C75.2214 13.482 74.8446 13.8553 74.2938 14.085C73.7431 14.3435 72.9604 14.5158 71.9748 14.6019L67.3947 15.0327V17.8183C67.3947 19.0244 68.4092 19.6275 70.4384 19.6275C72.4676 19.6275 72.4966 19.4839 73.0763 19.2254C73.6561 18.967 73.917 18.5649 73.917 18.048V17.1578C73.917 16.8132 74.2358 16.6122 74.8446 16.6122C75.4533 16.6122 75.7722 16.7845 75.7722 17.1578V17.8183C75.7722 20.1156 74.0619 21.2643 70.6123 21.2643C67.1628 21.2643 67.7135 20.9484 66.8149 20.3167C65.9163 19.6849 65.4814 18.7659 65.4814 17.5885V10.2656C65.4814 9.05952 65.9453 8.16929 66.9019 7.53751C67.8585 6.90573 69.1919 6.58984 70.9602 6.58984C72.7285 6.58984 73.83 6.87702 74.6127 7.48008C75.3954 8.08314 75.8012 8.97337 75.8012 10.2369ZM67.3657 10.0646V13.4533L71.7719 13.0225C72.6415 12.9363 73.1923 12.764 73.4822 12.5056C73.772 12.2471 73.888 11.7302 73.888 10.9836V10.0933C73.888 9.49028 73.5981 9.05952 73.0473 8.74363C72.4966 8.42775 71.6559 8.28416 70.6123 8.28416C69.5688 8.28416 68.7571 8.42775 68.2063 8.74363C67.6556 9.05952 67.3657 9.519 67.3657 10.0933V10.0646Z" fill="white"/>
<path id="Vector (Stroke)_5" fill-rule="evenodd" clip-rule="evenodd" d="M70.9609 7.08568C69.2441 7.08568 68.0225 7.39381 67.1803 7.95003C66.3724 8.48361 65.9829 9.21368 65.9829 10.2655V17.5884C65.9829 18.6273 66.3564 19.3855 67.1054 19.9121C67.3211 20.0637 67.473 20.207 67.5825 20.3104C67.6046 20.3313 67.625 20.3505 67.6439 20.3679C67.7499 20.4655 67.82 20.5186 67.9408 20.5657C68.2424 20.683 68.8669 20.7682 70.613 20.7682C72.2976 20.7682 73.4689 20.4849 74.2064 19.9916C74.9086 19.522 75.2722 18.8257 75.2722 17.8181V17.1667C75.2201 17.1424 75.094 17.108 74.8453 17.108C74.5946 17.108 74.4677 17.1496 74.4184 17.1765V18.0479C74.4184 18.3928 74.3299 18.7241 74.1267 19.0154C73.9257 19.3036 73.6351 19.5204 73.2825 19.6776C73.2326 19.6998 73.1828 19.7236 73.1315 19.7482C72.9375 19.8409 72.7231 19.9434 72.4029 20.0089C72.0141 20.0885 71.4533 20.1233 70.4391 20.1233C69.3908 20.1233 68.5213 19.9704 67.8987 19.6003C67.2353 19.206 66.8947 18.5892 66.8947 17.8181V14.5815L71.9298 14.1079L71.9315 14.1078C72.8918 14.0238 73.6069 13.8588 74.0802 13.6367L74.0901 13.632L74.1002 13.6278C74.5334 13.4471 74.8162 13.1654 74.9965 12.7635C75.1898 12.3327 75.3012 11.7481 75.3012 10.926V10.2368C75.3012 9.09067 74.9409 8.36063 74.306 7.87142C73.6529 7.36818 72.6856 7.08568 70.9609 7.08568ZM66.6248 7.12473C67.6958 6.4174 69.1412 6.09375 70.9609 6.09375C72.7727 6.09375 74.0086 6.38559 74.9208 7.08848C75.8513 7.80539 76.3026 8.85581 76.3026 10.2368V10.926C76.3026 11.8269 76.1821 12.5634 75.9116 13.1663C75.6295 13.7951 75.162 14.2585 74.499 14.5377C73.8721 14.8297 73.026 15.0078 72.0212 15.0957C72.0206 15.0958 72.0201 15.0958 72.0195 15.0959L67.8961 15.4837V17.8181C67.8961 18.2532 68.0628 18.541 68.4139 18.7498C68.8059 18.9827 69.4583 19.1314 70.4391 19.1314C71.4541 19.1314 71.9224 19.0944 72.2003 19.0375C72.391 18.9985 72.4792 18.9566 72.6445 18.8781C72.7063 18.8488 72.7788 18.8143 72.8715 18.773C73.0988 18.6717 73.2284 18.5582 73.3028 18.4516C73.3751 18.348 73.417 18.2198 73.417 18.0479V17.1576C73.417 16.8027 73.5963 16.5096 73.8941 16.3312C74.1613 16.1712 74.4984 16.1161 74.8453 16.1161C75.1804 16.1161 75.519 16.1605 75.7891 16.3161C76.1024 16.4966 76.2736 16.7982 76.2736 17.1576V17.8181C76.2736 19.108 75.7821 20.1347 74.7668 20.8137C73.7868 21.4692 72.3781 21.7602 70.613 21.7602C68.9096 21.7602 68.0847 21.6874 67.5746 21.4889C67.2897 21.378 67.1133 21.2337 66.962 21.0944C66.9333 21.0679 66.9062 21.0424 66.8798 21.0177C66.7733 20.9175 66.6781 20.8281 66.5258 20.721C65.4776 19.984 64.9814 18.9043 64.9814 17.5884V10.2655C64.9814 8.90511 65.5195 7.85471 66.6248 7.12473ZM67.9561 8.3143C68.6219 7.93246 69.5408 7.78806 70.613 7.78806C71.6825 7.78806 72.6318 7.93167 73.2989 8.3143C73.6262 8.50201 73.9041 8.74007 74.0988 9.04662C74.2956 9.35666 74.3894 9.70869 74.3894 10.0932V10.9834C74.3894 11.3775 74.3593 11.7388 74.2799 12.0494C74.2007 12.3588 74.0627 12.6558 73.8179 12.8741C73.3985 13.248 72.7012 13.4288 71.8224 13.5159L66.8657 14.0005V10.0645H66.8659C66.8758 9.30354 67.2806 8.70172 67.9561 8.3143ZM67.8671 10.0932V12.9058L71.7227 12.5289C72.5832 12.4436 72.9875 12.2798 73.1479 12.1368C73.193 12.0966 73.2579 12.006 73.3091 11.8057C73.3601 11.6065 73.388 11.3361 73.388 10.9834V10.0932C73.388 9.87468 73.3368 9.7098 73.2511 9.57472C73.1631 9.43615 73.0206 9.30089 72.7971 9.17271C72.3627 8.92356 71.6308 8.77999 70.613 8.77999C69.5982 8.77999 68.8937 8.92277 68.4579 9.17271C68.0404 9.41221 67.8671 9.71906 67.8671 10.0932Z" fill="white"/>
<path id="Vector_6" d="M82.3816 10.0633V17.8456C82.3816 18.4487 82.6425 18.8794 83.1643 19.1953C83.6861 19.5112 84.4398 19.6548 85.3964 19.6548C87.3965 19.6548 88.4111 19.0517 88.4111 17.8456V16.8692C88.4111 16.5246 88.73 16.3236 89.3387 16.3236C89.9475 16.3236 90.2664 16.4959 90.2664 16.8692V17.6159C90.2664 18.822 89.8605 19.7122 89.0199 20.344C88.1792 20.9758 86.9617 21.2917 85.3964 21.2917C83.831 21.2917 82.6135 20.9758 81.7729 20.344C80.9322 19.7122 80.5264 18.7933 80.5264 17.6159V10.293C80.5264 9.08687 80.9322 8.19663 81.7729 7.56486C82.6135 6.93308 83.831 6.61719 85.3964 6.61719C86.9617 6.61719 88.1792 6.93308 89.0199 7.56486C89.8605 8.19663 90.2664 9.11559 90.2664 10.293V11.0396C90.2664 11.3842 89.9475 11.5853 89.3387 11.5853C88.73 11.5853 88.4111 11.413 88.4111 11.0396V10.0633C88.4111 8.85713 87.3965 8.25407 85.3964 8.25407C83.3962 8.25407 83.6861 8.39765 83.1643 8.71354C82.6425 9.02943 82.3816 9.48891 82.3816 10.0633Z" fill="white"/>
<path id="Vector (Stroke)_6" fill-rule="evenodd" clip-rule="evenodd" d="M85.3961 7.11302C83.8883 7.11302 82.7951 7.41887 82.0752 7.95984C81.38 8.48233 81.0268 9.21427 81.0268 10.2929V17.6157C81.0268 18.668 81.3816 19.4275 82.0752 19.9488C82.7951 20.4897 83.8883 20.7956 85.3961 20.7956C86.9039 20.7956 87.9971 20.4897 88.717 19.9488C89.4122 19.4263 89.7654 18.6943 89.7654 17.6157V16.8781C89.7133 16.8539 89.5872 16.8194 89.3385 16.8194C89.0878 16.8194 88.9609 16.8611 88.9116 16.888V17.8455C88.9116 18.616 88.5715 19.2323 87.9125 19.6268C87.2934 19.9975 86.4309 20.1506 85.3961 20.1506C84.4046 20.1506 83.5409 20.0046 82.9029 19.6184C82.5866 19.4269 82.3245 19.1851 82.144 18.877C81.9626 18.5676 81.8806 18.2205 81.8806 17.8455V10.0631C81.8806 9.30999 82.2375 8.69304 82.9029 8.29023C82.9771 8.24533 83.0203 8.21196 83.0767 8.16836C83.0984 8.15163 83.122 8.1334 83.1501 8.11244C83.2564 8.03296 83.3827 7.95193 83.5759 7.89196C83.9055 7.78961 84.4145 7.75797 85.3961 7.75797C86.4309 7.75797 87.2934 7.91114 87.9125 8.28177C88.5715 8.67626 88.9116 9.29257 88.9116 10.0631V11.0305C88.9637 11.0547 89.0898 11.0892 89.3385 11.0892C89.5892 11.0892 89.7161 11.0475 89.7654 11.0206V10.2929C89.7654 9.24064 89.4106 8.48111 88.717 7.95984C87.9971 7.41887 86.9039 7.11302 85.3961 7.11302ZM81.4699 7.16962C82.4314 6.44702 83.7732 6.12109 85.3961 6.12109C87.019 6.12109 88.3608 6.44702 89.3223 7.16962C90.31 7.9119 90.7668 8.99027 90.7668 10.2929V11.0395C90.7668 11.3945 90.5875 11.6876 90.2897 11.8659C90.0225 12.026 89.6854 12.0811 89.3385 12.0811C89.0034 12.0811 88.6648 12.0367 88.3947 11.8811C88.0814 11.7006 87.9102 11.3989 87.9102 11.0395V10.0631C87.9102 9.62755 87.7429 9.33927 87.3946 9.1307C87.0063 8.89827 86.3615 8.7499 85.3961 8.7499C84.3775 8.7499 84.0313 8.79007 83.8754 8.83847C83.8258 8.85389 83.8018 8.86799 83.7532 8.90427C83.7429 8.91195 83.7304 8.92168 83.7157 8.93308C83.6536 8.98125 83.5532 9.0591 83.4251 9.1366C83.0469 9.36557 82.8821 9.66756 82.8821 10.0631V17.8455C82.8821 18.0735 82.9305 18.2433 83.01 18.379C83.0904 18.5161 83.2197 18.6476 83.4251 18.772C83.8307 19.0175 84.4744 19.1587 85.3961 19.1587C86.3615 19.1587 87.0063 19.0103 87.3946 18.7779C87.7429 18.5693 87.9102 18.2811 87.9102 17.8455V16.8691C87.9102 16.5141 88.0895 16.221 88.3873 16.0427C88.6545 15.8826 88.9915 15.8275 89.3385 15.8275C89.6736 15.8275 90.0121 15.8719 90.2823 16.0275C90.5956 16.208 90.7668 16.5097 90.7668 16.8691V17.6157C90.7668 18.9494 90.3083 19.9979 89.3223 20.739C88.3608 21.4616 87.019 21.7875 85.3961 21.7875C83.7732 21.7875 82.4314 21.4616 81.4699 20.739C80.4822 19.9967 80.0254 18.9183 80.0254 17.6157V10.2929C80.0254 8.95921 80.4839 7.91068 81.4699 7.16962Z" fill="white"/>
<path id="Vector_7" d="M97.5711 4.34641V7.07454H100.035C100.354 7.07454 100.499 7.333 100.499 7.87862C100.499 8.42425 100.354 8.68271 100.035 8.68271H97.5711V18.303C97.5711 18.7337 97.6291 19.0783 97.7451 19.3368C97.861 19.5952 97.977 19.825 98.0929 19.9686C98.2089 20.1409 98.2668 20.2557 98.2668 20.3419C98.2668 20.428 98.2089 20.5716 98.0639 20.7152C97.919 20.8588 97.774 20.9737 97.5711 21.0885C97.3682 21.2034 97.2233 21.2321 97.0783 21.2321C96.9334 21.2321 96.6435 21.0885 96.4116 20.8301C96.1797 20.5716 96.0058 20.227 95.8898 19.7963C95.7739 19.3655 95.6869 18.9347 95.6869 18.504V8.68271H93.8027C93.4838 8.68271 93.3389 8.42425 93.3389 7.87862C93.3389 7.333 93.4838 7.07454 93.8027 7.07454H95.6869V4.34641C95.6869 4.0018 96.0058 3.80078 96.6145 3.80078C97.2233 3.80078 97.5421 3.97308 97.5421 4.34641H97.5711Z" fill="white"/>
<path id="Vector (Stroke)_7" fill-rule="evenodd" clip-rule="evenodd" d="M96.1883 4.36907V7.57428H93.8687C93.8658 7.58583 93.8628 7.59948 93.8598 7.61547C93.8482 7.67887 93.8403 7.76607 93.8403 7.8824C93.8403 7.99873 93.8482 8.08594 93.8598 8.14933C93.8628 8.16532 93.8658 8.17897 93.8687 8.19052H96.1883V18.5078C96.1883 18.8752 96.2628 19.2578 96.3743 19.6723C96.4758 20.0492 96.6194 20.318 96.7866 20.5044C96.8657 20.5926 96.9538 20.6596 97.0281 20.702C97.0623 20.7215 97.089 20.7331 97.1058 20.7392C97.1297 20.7379 97.1502 20.7346 97.1719 20.7287C97.2033 20.7202 97.2512 20.7026 97.3234 20.6617C97.4844 20.5705 97.5944 20.4834 97.7106 20.3683C97.7206 20.3583 97.7293 20.3489 97.7367 20.3403C97.7239 20.319 97.7077 20.2935 97.6873 20.2628C97.5325 20.0643 97.3991 19.7891 97.2882 19.542C97.1329 19.1958 97.0711 18.7741 97.0711 18.3067V8.19052H99.9705C99.9734 8.17897 99.9765 8.16532 99.9794 8.14932C99.9911 8.08593 99.9989 7.99873 99.9989 7.8824C99.9989 7.76607 99.9911 7.67887 99.9794 7.61548C99.9765 7.59948 99.9734 7.58583 99.9705 7.57428H97.0711V4.84615H97.0421V4.35919C96.9901 4.33497 96.8639 4.30052 96.6152 4.30052C96.3645 4.30052 96.2376 4.34217 96.1883 4.36907ZM97.9141 3.85422C97.8322 3.71485 97.7127 3.59716 97.559 3.50862C97.2889 3.35303 96.9503 3.30859 96.6152 3.30859C96.2683 3.30859 95.9312 3.36369 95.664 3.52375C95.3663 3.70212 95.1869 3.99521 95.1869 4.35019V6.58236H93.8034C93.6544 6.58236 93.497 6.61304 93.3498 6.6956C93.2013 6.7788 93.0924 6.8983 93.0164 7.03097C92.875 7.27786 92.8389 7.58483 92.8389 7.8824C92.8389 8.17997 92.875 8.48694 93.0164 8.73383C93.0924 8.8665 93.2013 8.986 93.3498 9.0692C93.497 9.15176 93.6544 9.18245 93.8034 9.18245H95.1869V18.5078C95.1869 19.0018 95.2864 19.4808 95.4067 19.9278C95.5372 20.4124 95.7414 20.8328 96.0381 21.1633C96.1908 21.3336 96.3636 21.4676 96.5284 21.5616C96.6758 21.6456 96.8763 21.7319 97.079 21.7319C97.3157 21.7319 97.5458 21.6783 97.8203 21.5229C98.0651 21.3844 98.245 21.2417 98.4187 21.0697C98.6182 20.872 98.7683 20.6097 98.7683 20.3457C98.7683 20.1976 98.72 20.0703 98.6771 19.9802C98.6325 19.8861 98.573 19.7906 98.5103 19.6973L98.4982 19.6793L98.4846 19.6625C98.414 19.5751 98.3207 19.4008 98.2033 19.1392C98.1267 18.9684 98.0725 18.7009 98.0725 18.3067V9.18245H100.036C100.185 9.18245 100.342 9.15176 100.489 9.0692C100.638 8.986 100.747 8.86651 100.823 8.73384C100.964 8.48695 101 8.17997 101 7.8824C101 7.58483 100.964 7.27785 100.823 7.03096C100.747 6.8983 100.638 6.7788 100.489 6.6956C100.342 6.61304 100.185 6.58236 100.036 6.58236H98.0725V3.85422H97.9141ZM97.1199 20.7437C97.1199 20.7437 97.1192 20.7435 97.1178 20.7432C97.1192 20.7434 97.1199 20.7436 97.1199 20.7437Z" fill="white"/>
<path id="Vector_8" d="M57.6266 20.4588V7.90934H55.8873C55.5685 7.90934 55.3945 7.62217 55.3945 7.04783C55.3945 6.47348 55.5685 6.18631 55.8873 6.18631H57.6266V4.77917C57.6266 2.19462 59.3369 0.902344 62.7575 0.902344H63.6272C63.946 0.902344 64.1199 1.18952 64.1199 1.76386C64.1199 2.3382 63.946 2.62538 63.6272 2.62538H62.7575C60.6704 2.62538 59.6268 3.25715 59.6268 4.54943V6.18631H62.4966C62.8155 6.18631 62.9894 6.47348 62.9894 7.04783C62.9894 7.62217 62.8155 7.90934 62.4966 7.90934H59.6268V20.4588C59.6268 20.9182 59.2499 21.2628 58.8151 21.2628H58.4673C58.0035 21.2628 57.6556 20.8895 57.6556 20.4588H57.6266Z" fill="white"/>
<path id="Vector (Stroke)_8" fill-rule="evenodd" clip-rule="evenodd" d="M59.2128 2.26575C58.5086 2.7978 58.1271 3.60465 58.1271 4.77904V6.68215H55.9402C55.9201 6.7375 55.895 6.84976 55.895 7.0477C55.895 7.24563 55.9201 7.35789 55.9402 7.41325H58.1271V19.9627H58.1561V20.4586C58.1561 20.6272 58.2914 20.7668 58.467 20.7668H58.8149C58.9848 20.7668 59.1258 20.6328 59.1258 20.4586V7.41325H62.4432C62.4634 7.35789 62.4884 7.24563 62.4884 7.0477C62.4884 6.84976 62.4634 6.7375 62.4432 6.68215H59.1258V4.5493C59.1258 3.74385 59.4661 3.09706 60.1459 2.6808C60.7851 2.28945 61.6793 2.12928 62.7572 2.12928H63.5737C63.5939 2.07393 63.619 1.96166 63.619 1.76373C63.619 1.5658 63.5939 1.45353 63.5737 1.39818H62.7572C61.0964 1.39818 59.9425 1.71434 59.2128 2.26575ZM57.2541 20.9546H57.1256V8.40518H55.8871C55.5404 8.40518 55.2556 8.23149 55.087 7.94103C54.9397 7.68726 54.8936 7.36959 54.8936 7.0477C54.8936 6.7258 54.9397 6.40813 55.087 6.15436C55.2556 5.8639 55.5404 5.69022 55.8871 5.69022H57.1256V4.77904C57.1256 3.36887 57.5993 2.23731 58.6054 1.47709C59.5859 0.736229 60.9975 0.40625 62.7572 0.40625H63.6269C63.9736 0.40625 64.2584 0.579936 64.4269 0.870396C64.5742 1.12416 64.6204 1.44183 64.6204 1.76373C64.6204 2.08563 64.5742 2.4033 64.4269 2.65707C64.2584 2.94753 63.9736 3.12121 63.6269 3.12121H62.7572C61.748 3.12121 61.0769 3.27694 60.6725 3.52454C60.3088 3.74724 60.1272 4.06248 60.1272 4.5493V5.69022H62.4964C62.843 5.69022 63.1278 5.8639 63.2964 6.15436C63.4437 6.40813 63.4899 6.7258 63.4899 7.0477C63.4899 7.36959 63.4437 7.68726 63.2964 7.94103C63.1278 8.23149 62.843 8.40518 62.4964 8.40518H60.1272V20.4586C60.1272 21.2034 59.5146 21.7587 58.8149 21.7587H58.467C57.9032 21.7587 57.4471 21.4174 57.2541 20.9546Z" fill="white"/>
</g>
</g>
</svg>
