<svg width="57" height="56" viewBox="0 0 57 56" fill="none" xmlns="http://www.w3.org/2000/svg">
<g id="logo/character">
<ellipse id="Ellipse 26" cx="28.259" cy="28" rx="28.259" ry="27.5" fill="#8530F1"/>
<g id="Group 1707481685">
<path id="Vector" d="M40.1806 18.449C39.318 14.5145 34.1273 13.1083 30.6757 15.249C30.2521 15.5118 29.8466 15.829 29.4716 16.2118C27.5582 18.1659 27.6448 20.7615 27.4564 23.319C27.3206 25.1607 27.5323 28.3245 29.0712 30.0333C29.5899 30.6096 30.8007 32.2706 32.5931 32.6061C35.6814 33.184 39.3652 30.7179 39.9889 27.6379C40.584 24.6996 41.0365 22.3598 40.1787 18.449H40.1806Z" fill="white" stroke="black" stroke-width="1.97516" stroke-miterlimit="10"/>
<path id="Vector_2" d="M38.3168 15.6985C36.5818 14.9038 34.6152 16.4173 34.4769 16.5271C33.0884 17.6272 32.5385 19.2695 32.2719 20.6789C32.0444 21.8811 31.9493 22.7585 32.1367 24.9351C32.3856 27.8261 33.222 28.7183 33.5173 29.1302C33.7184 29.4105 34.4215 30.3631 35.7098 30.7833C36.1057 30.9122 36.9243 31.1795 37.7604 30.8697C38.0001 30.7812 38.8249 30.4294 39.5327 28.7877C40.285 27.0425 40.5574 26.1429 40.6426 22.7547C40.702 20.387 40.5068 20.0943 40.2402 18.8913C40.0321 17.9537 39.6703 16.3186 38.3168 15.6985Z" fill="black"/>
<path id="Vector_3" d="M38.346 37.2693C37.95 37.8822 37.0325 39.1329 35.5166 39.8111C35.0157 40.0346 33.7349 40.6072 32.3017 40.1142C30.1425 39.3714 29.0803 36.7063 28.564 35.4103C27.6186 33.0375 27.541 30.9682 27.4449 27.64C27.3845 25.5461 27.4183 22.6196 27.8497 19.125" stroke="black" stroke-width="1.97516" stroke-miterlimit="10"/>
<path id="Vector_4" d="M26.7809 18.449C25.9088 14.5145 20.661 13.1083 17.1714 15.249C16.7431 15.5118 16.3331 15.829 15.954 16.2118C14.0196 18.1659 14.1072 20.7615 13.9167 23.319C13.7794 25.1607 13.9934 28.3245 15.5493 30.0333C16.0737 30.6096 17.2978 32.2706 19.1099 32.6061C22.2321 33.184 25.9566 30.7179 26.5871 27.6379C27.2175 24.558 27.6462 22.3598 26.779 18.449H26.7809Z" fill="white" stroke="black" stroke-width="1.97516" stroke-miterlimit="10"/>
<path id="Vector_5" d="M24.8898 15.6985C23.1239 14.9038 21.1223 16.4173 20.9815 16.5271C19.5681 17.6272 19.0084 19.2695 18.7371 20.6789C18.5055 21.8811 18.4087 22.7585 18.5994 24.9351C18.8527 27.8261 19.7041 28.7183 20.0048 29.1302C20.2093 29.4105 20.925 30.3631 22.2363 30.7833C22.6393 30.9122 23.4725 31.1795 24.3236 30.8697C24.5675 30.7812 25.407 30.4294 26.1275 28.7877C26.8933 27.0425 27.1705 26.1429 27.2572 22.7547C27.3176 20.387 27.119 20.0943 26.8476 18.8913C26.6357 17.9537 26.2675 16.3186 24.8898 15.6985Z" fill="black"/>
<path id="Vector_6" d="M24.9598 37.2693C24.5582 37.8821 23.6279 39.133 22.0905 39.8111C21.5826 40.0347 20.2837 40.6071 18.8304 40.1142C16.6407 39.3714 15.5636 36.7063 15.04 35.4104C14.0813 33.0375 14.0026 30.9682 13.9052 27.64C13.844 25.5461 13.8782 22.6196 14.3156 19.125" stroke="black" stroke-width="1.97516" stroke-miterlimit="10"/>
</g>
</g>
</svg>
