<svg width="1280" height="34" viewBox="0 0 1280 34" fill="none" xmlns="http://www.w3.org/2000/svg">
<ellipse cx="16.9735" cy="17" rx="16.9735" ry="17" fill="#1E1E1E"/>
<path d="M18.9498 10.9805V23H16.775V13.0889H16.7086L13.9029 14.8818V12.9062L16.8746 10.9805H18.9498Z" fill="white"/>
<path d="M129.299 17C129.299 26.1134 121.922 33.5 112.825 33.5C103.728 33.5 96.3516 26.1134 96.3516 17C96.3516 7.88657 103.728 0.5 112.825 0.5C121.922 0.5 129.299 7.88657 129.299 17Z" fill="#1E1E1E" stroke="#B5B5B5"/>
<path d="M109.198 23V21.4395L113.448 17.3389C114.66 16.127 115.291 15.4131 115.291 14.4004C115.291 13.2881 114.411 12.5742 113.232 12.5742C111.987 12.5742 111.19 13.3545 111.207 14.5664H109.148C109.132 12.292 110.842 10.8145 113.249 10.8145C115.706 10.8145 117.366 12.2754 117.366 14.3008C117.366 15.6621 116.702 16.7578 114.344 18.9824L112.203 21.1074V21.1904H117.549V23H109.198Z" fill="#B5B5B5"/>
<path d="M225.146 17C225.146 26.1134 217.77 33.5 208.673 33.5C199.575 33.5 192.199 26.1134 192.199 17C192.199 7.88657 199.575 0.5 208.673 0.5C217.77 0.5 225.146 7.88657 225.146 17Z" fill="#1E1E1E" stroke="#B5B5B5"/>
<path d="M208.165 23.166C205.592 23.166 203.765 21.7715 203.716 19.7461H205.89C205.957 20.709 206.92 21.3398 208.165 21.3398C209.493 21.3398 210.439 20.6094 210.439 19.5469C210.439 18.4678 209.509 17.6875 207.949 17.6875H206.87V16.0273H207.949C209.227 16.0273 210.124 15.3135 210.107 14.2676C210.124 13.2549 209.36 12.5742 208.181 12.5742C207.052 12.5742 206.073 13.2051 206.04 14.2178H203.965C204.014 12.1924 205.841 10.8145 208.198 10.8145C210.638 10.8145 212.216 12.3086 212.199 14.1514C212.216 15.4961 211.319 16.4756 210.008 16.7412V16.8408C211.701 17.0732 212.664 18.1523 212.647 19.6631C212.664 21.6885 210.771 23.166 208.165 23.166Z" fill="#B5B5B5"/>
<path d="M320.998 17C320.998 26.1134 313.622 33.5 304.524 33.5C295.427 33.5 288.051 26.1134 288.051 17C288.051 7.88657 295.427 0.5 304.524 0.5C313.622 0.5 320.998 7.88657 320.998 17Z" fill="#1E1E1E" stroke="#B5B5B5"/>
<path d="M299.318 20.7588V19.0322L304.514 10.9805H307.204V18.9824H308.781V20.7588H307.204V23H305.145V20.7588H299.318ZM301.526 18.9824H305.178V13.4375H305.046L301.526 18.8994V18.9824Z" fill="#B5B5B5"/>
<path d="M416.849 17C416.849 26.1134 409.473 33.5 400.376 33.5C391.279 33.5 383.902 26.1134 383.902 17C383.902 7.88657 391.279 0.5 400.376 0.5C409.473 0.5 416.849 7.88657 416.849 17Z" fill="#1E1E1E" stroke="#B5B5B5"/>
<path d="M399.893 23.166C397.486 23.166 395.726 21.7383 395.659 19.7461H397.768C397.834 20.7256 398.747 21.4229 399.893 21.4229C401.238 21.4229 402.2 20.4434 402.2 19.1152C402.2 17.7373 401.204 16.7578 399.826 16.7578C398.897 16.7412 398.216 17.0732 397.834 17.7871H395.825L396.556 10.9805H403.661V12.79H398.332L397.967 15.9775H398.083C398.548 15.4463 399.428 15.0645 400.407 15.0645C402.649 15.0645 404.292 16.7412 404.292 19.0488C404.292 21.4561 402.483 23.166 399.893 23.166Z" fill="#B5B5B5"/>
<path d="M512.697 17C512.697 26.1134 505.321 33.5 496.223 33.5C487.126 33.5 479.75 26.1134 479.75 17C479.75 7.88657 487.126 0.5 496.223 0.5C505.321 0.5 512.697 7.88657 512.697 17Z" fill="#1E1E1E" stroke="#B5B5B5"/>
<path d="M495.84 23.166C493.499 23.1494 491.142 21.7549 491.158 17.3223C491.158 13.2051 493.034 10.8145 495.973 10.8145C498.297 10.8145 499.891 12.2754 500.156 14.2178H498.015C497.799 13.3047 497.069 12.6904 495.973 12.6904C494.23 12.6904 493.25 14.2344 493.25 16.7578H493.366C493.981 15.7285 495.143 15.1143 496.454 15.1143C498.613 15.1143 500.273 16.7412 500.273 19.0156C500.273 21.4062 498.496 23.1826 495.84 23.166ZM495.84 21.4229C497.185 21.4229 498.181 20.377 498.181 19.0654C498.181 17.7871 497.201 16.7578 495.873 16.7578C494.529 16.7578 493.499 17.8203 493.483 19.082C493.499 20.3438 494.479 21.4229 495.84 21.4229Z" fill="#B5B5B5"/>
<path d="M608.549 17C608.549 26.1134 601.172 33.5 592.075 33.5C582.978 33.5 575.602 26.1134 575.602 17C575.602 7.88657 582.978 0.5 592.075 0.5C601.172 0.5 608.549 7.88657 608.549 17Z" fill="#1E1E1E" stroke="#B5B5B5"/>
<path d="M588.696 23L593.909 12.873V12.79H587.866V10.9805H596.15V12.8232L590.937 23H588.696Z" fill="#B5B5B5"/>
<path d="M704.398 17C704.398 26.1134 697.022 33.5 687.925 33.5C678.827 33.5 671.451 26.1134 671.451 17C671.451 7.88657 678.827 0.5 687.925 0.5C697.022 0.5 704.398 7.88657 704.398 17Z" fill="#1E1E1E" stroke="#B5B5B5"/>
<path d="M687.425 23.166C684.752 23.166 682.86 21.7383 682.86 19.7793C682.86 18.252 683.988 17.0068 685.433 16.7744V16.708C684.171 16.4424 683.308 15.3467 683.308 14.0352C683.308 12.1758 685.051 10.8145 687.425 10.8145C689.782 10.8145 691.526 12.1758 691.526 14.0352C691.526 15.3467 690.646 16.4424 689.401 16.708V16.7744C690.845 17.0068 691.99 18.252 691.99 19.7793C691.99 21.7383 690.081 23.166 687.425 23.166ZM687.425 21.4561C688.836 21.4561 689.766 20.6924 689.766 19.5801C689.766 18.4512 688.77 17.6211 687.425 17.6211C686.064 17.6211 685.068 18.4512 685.084 19.5801C685.068 20.6924 685.997 21.4561 687.425 21.4561ZM687.425 16.0107C688.587 16.0107 689.417 15.2803 689.417 14.2344C689.417 13.2217 688.604 12.5078 687.425 12.5078C686.23 12.5078 685.416 13.2051 685.416 14.2344C685.416 15.2803 686.246 16.0107 687.425 16.0107Z" fill="#B5B5B5"/>
<path d="M800.248 17C800.248 26.1134 792.872 33.5 783.774 33.5C774.677 33.5 767.301 26.1134 767.301 17C767.301 7.88657 774.677 0.5 783.774 0.5C792.872 0.5 800.248 7.88657 800.248 17Z" fill="#1E1E1E" stroke="#B5B5B5"/>
<path d="M783.158 10.8145C785.516 10.8311 787.84 12.2256 787.857 16.625C787.857 20.7754 785.981 23.166 783.026 23.166C780.701 23.166 779.108 21.7217 778.842 19.7295H780.984C781.199 20.6758 781.93 21.29 783.026 21.29C784.769 21.29 785.748 19.7461 785.765 17.1729H785.632C785.018 18.2188 783.872 18.833 782.544 18.833C780.403 18.833 778.742 17.2061 778.726 14.9316C778.726 12.5742 780.486 10.7979 783.158 10.8145ZM783.175 12.5576C781.83 12.5576 780.818 13.6035 780.834 14.8818C780.834 16.1768 781.797 17.1895 783.142 17.1895C784.47 17.1895 785.516 16.1104 785.499 14.8652C785.499 13.6367 784.52 12.5576 783.175 12.5576Z" fill="#B5B5B5"/>
<path d="M896.099 17C896.099 26.1134 888.723 33.5 879.626 33.5C870.529 33.5 863.152 26.1134 863.152 17C863.152 7.88657 870.529 0.5 879.626 0.5C888.723 0.5 896.099 7.88657 896.099 17Z" fill="#1E1E1E" stroke="#B5B5B5"/>
<path d="M875.885 10.9805V23H873.71V13.0889H873.644L870.838 14.8818V12.9062L873.81 10.9805H875.885ZM882.815 23.166C879.926 23.166 878.199 20.9248 878.199 16.9902C878.199 13.0723 879.926 10.8145 882.815 10.8145C885.687 10.8145 887.43 13.0723 887.43 16.9902C887.43 20.9248 885.703 23.166 882.815 23.166ZM882.815 21.3564C884.325 21.3564 885.255 19.8789 885.255 16.9902C885.255 14.1182 884.309 12.6074 882.815 12.6074C881.321 12.6074 880.374 14.1182 880.374 16.9902C880.374 19.8789 881.304 21.3564 882.815 21.3564Z" fill="#B5B5B5"/>
<path d="M991.949 17C991.949 26.1134 984.573 33.5 975.475 33.5C966.378 33.5 959.002 26.1134 959.002 17C959.002 7.88657 966.378 0.5 975.475 0.5C984.573 0.5 991.949 7.88657 991.949 17Z" fill="#1E1E1E" stroke="#B5B5B5"/>
<path d="M973.763 10.9805V23H971.588V13.0889H971.521L968.716 14.8818V12.9062L971.687 10.9805H973.763ZM981.14 10.9805V23H978.965V13.0889H978.899L976.093 14.8818V12.9062L979.065 10.9805H981.14Z" fill="#B5B5B5"/>
<path d="M1087.8 17C1087.8 26.1134 1080.42 33.5 1071.33 33.5C1062.23 33.5 1054.85 26.1134 1054.85 17C1054.85 7.88657 1062.23 0.5 1071.33 0.5C1080.42 0.5 1087.8 7.88657 1087.8 17Z" fill="#1E1E1E" stroke="#B5B5B5"/>
<path d="M1068.39 10.9805V23H1066.22V13.0889H1066.15L1063.35 14.8818V12.9062L1066.32 10.9805H1068.39ZM1070.89 23V21.4395L1075.14 17.3389C1076.35 16.127 1076.98 15.4131 1076.98 14.4004C1076.98 13.2881 1076.1 12.5742 1074.92 12.5742C1073.68 12.5742 1072.88 13.3545 1072.9 14.5664H1070.84C1070.82 12.292 1072.53 10.8145 1074.94 10.8145C1077.4 10.8145 1079.06 12.2754 1079.06 14.3008C1079.06 15.6621 1078.39 16.7578 1076.04 18.9824L1073.9 21.1074V21.1904H1079.24V23H1070.89Z" fill="#B5B5B5"/>
<path d="M1183.65 17C1183.65 26.1134 1176.27 33.5 1167.18 33.5C1158.08 33.5 1150.7 26.1134 1150.7 17C1150.7 7.88657 1158.08 0.5 1167.18 0.5C1176.27 0.5 1183.65 7.88657 1183.65 17Z" fill="#1E1E1E" stroke="#B5B5B5"/>
<path d="M1163.49 10.9805V23H1161.32V13.0889H1161.25L1158.45 14.8818V12.9062L1161.42 10.9805H1163.49ZM1170.36 23.166C1167.78 23.166 1165.96 21.7715 1165.91 19.7461H1168.08C1168.15 20.709 1169.11 21.3398 1170.36 21.3398C1171.69 21.3398 1172.63 20.6094 1172.63 19.5469C1172.63 18.4678 1171.7 17.6875 1170.14 17.6875H1169.06V16.0273H1170.14C1171.42 16.0273 1172.32 15.3135 1172.3 14.2676C1172.32 13.2549 1171.55 12.5742 1170.37 12.5742C1169.24 12.5742 1168.27 13.2051 1168.23 14.2178H1166.16C1166.21 12.1924 1168.03 10.8145 1170.39 10.8145C1172.83 10.8145 1174.41 12.3086 1174.39 14.1514C1174.41 15.4961 1173.51 16.4756 1172.2 16.7412V16.8408C1173.89 17.0732 1174.86 18.1523 1174.84 19.6631C1174.86 21.6885 1172.96 23.166 1170.36 23.166Z" fill="#B5B5B5"/>
<path d="M1279.5 17C1279.5 26.1134 1272.12 33.5 1263.03 33.5C1253.93 33.5 1246.55 26.1134 1246.55 17C1246.55 7.88657 1253.93 0.5 1263.03 0.5C1272.12 0.5 1279.5 7.88657 1279.5 17Z" fill="#1E1E1E" stroke="#B5B5B5"/>
<path d="M1259.23 10.9805V23H1257.05V13.0889H1256.99L1254.18 14.8818V12.9062L1257.15 10.9805H1259.23ZM1261.51 20.7588V19.0322L1266.71 10.9805H1269.4V18.9824H1270.97V20.7588H1269.4V23H1267.34V20.7588H1261.51ZM1263.72 18.9824H1267.37V13.4375H1267.24L1263.72 18.8994V18.9824Z" fill="#B5B5B5"/>
<rect y="16" width="1280" height="3" rx="1.5" fill="#B5B5B5"/>
</svg>
